<svg width="617" height="220" viewBox="0 0 617 220" fill="none" xmlns="http://www.w3.org/2000/svg">
<path d="M488.733 1.40382C453 8.20382 421.4 30.8705 407 60.0705C396.867 80.3372 397 79.5372 397 153.67V219.404H412.333H427.667V148.204V77.0038L450.6 54.8705L473.667 32.7372H507.533H541.267L558.2 49.0038C567.4 57.8038 577.533 68.0705 580.733 71.6705L586.333 78.3372V148.87V219.404H601.667H617V155.67C617 88.3371 616.467 82.3372 610.467 68.3372C606.067 58.0705 598.6 47.6705 587 35.5372C570.6 18.4705 553.667 7.67049 535.4 2.60382C524.867 -0.329512 501 -0.862845 488.733 1.40382Z" fill="#8B2F0E"/>
<path d="M463.133 64.3371L446.333 81.4038V134.337V187.404H461H475.667V134.337C475.667 94.8705 476.067 80.8705 477.267 79.6705C478.467 78.4705 486.867 78.0705 506.733 78.0705C531.8 78.0705 534.867 78.3371 536.467 80.3371C537.933 82.2038 538.2 93.6705 538.333 135.004V187.404H553.667H569V134.337V81.4038L551.133 64.3371L533.267 47.4038H506.6H479.933L463.133 64.3371Z" fill="#8B2F0E"/>
<path d="M492.6 95.004C492.067 95.404 491.667 102.337 491.667 110.337V124.737H507H522.333V109.404V94.0706H507.933C499.933 94.0706 493 94.4706 492.6 95.004Z" fill="#8B2F0E"/>
<path d="M32.9583 142.67C26.025 162.004 6.95834 214.404 6.29167 216.004C5.49167 218.004 6.15834 218.404 10.5583 218.404H15.7583L20.425 205.337L25.225 192.404H43.625H62.1583L66.9583 205.07C71.7583 217.737 71.7583 217.737 76.6917 218.137C79.3583 218.404 81.625 218.137 81.625 217.47C81.4917 216.937 75.3583 199.604 67.7583 179.07L54.025 141.737L43.8917 141.337C36.425 141.07 33.3583 141.47 32.9583 142.67ZM52.1583 163.47C55.8917 173.737 58.9583 182.404 58.9583 182.937C58.9583 183.337 52.025 183.737 43.625 183.737C35.225 183.737 28.2917 183.47 28.2917 183.204C28.2917 182.404 41.7583 145.87 42.5583 144.67C43.8917 142.537 45.4917 145.737 52.1583 163.47Z" fill="#8B2F0E"/>
<path d="M137.625 168.404C137.625 197.471 136.825 201.871 131.092 206.937C129.225 208.671 125.625 209.737 120.558 210.137C113.758 210.671 112.292 210.271 108.558 207.071C106.158 205.071 103.625 201.204 102.692 198.271C101.358 193.337 100.825 192.937 97.0915 193.337C93.2249 193.737 92.9582 194.004 93.4915 198.404C94.4249 208.004 100.558 214.937 110.692 217.871C127.625 222.804 142.158 215.204 145.492 199.737C146.292 196.004 146.958 181.204 146.958 167.071V141.071H142.292H137.625V168.404Z" fill="#8B2F0E"/>
<path d="M195.625 143.337C195.225 144.67 189.092 161.07 182.292 179.737C175.492 198.404 169.492 214.804 168.958 216.004C168.158 218.004 168.825 218.404 173.225 218.404H178.425L183.225 205.337L188.025 192.404H206.425H224.825L229.758 205.07C234.558 217.604 234.692 217.737 239.492 218.137C242.158 218.404 244.292 218.137 244.292 217.47C244.292 216.937 238.025 199.604 230.558 179.07L216.825 141.737L206.692 141.337C198.025 141.07 196.425 141.337 195.625 143.337ZM214.958 163.737C218.692 173.47 221.625 182.004 221.625 182.67C221.625 183.204 214.692 183.737 206.292 183.737C197.892 183.737 190.958 183.604 190.958 183.337C190.958 182.937 201.225 154.804 204.158 147.204C205.225 144.537 206.158 143.737 207.092 144.67C207.758 145.337 211.358 154.004 214.958 163.737Z" fill="#8B2F0E"/>
<path d="M270.425 145.204C270.025 147.47 269.625 164.937 269.625 184.004V218.537L274.025 218.137L278.292 217.737L278.692 181.337C278.825 161.47 279.492 145.07 280.158 145.07C281.358 145.07 281.758 146.67 293.758 191.337L300.958 218.404H310.292H319.625L329.492 181.737C334.825 161.604 339.892 145.07 340.425 145.07C341.092 145.07 341.625 159.337 341.625 176.67C341.625 194.137 342.025 210.67 342.425 213.337C343.225 217.87 343.758 218.404 347.092 218.404H350.958V179.737V140.937L340.692 141.337L330.558 141.737L321.092 178.004C315.892 198.004 311.092 214.137 310.292 214.004C309.625 213.737 305.358 199.47 300.692 182.27C296.158 165.07 291.758 148.804 290.958 146.004L289.492 141.07H280.425H271.358L270.425 145.204Z" fill="#8B2F0E"/>
<path d="M346.667 9.99995C346.667 11.6 344.933 12 339.333 12C333.6 12 331.867 12.5333 330.667 14.5333C329.467 17.0666 329.733 17.0666 337.067 16.4C341.2 16 346 14.8 347.733 13.8666C351.067 11.7333 351.733 7.99995 348.667 7.99995C347.6 7.99995 346.667 8.93329 346.667 9.99995Z" fill="#8B2F0E"/>
<path d="M88 58.6665V91.9998L93.3333 97.3332L98.6667 102.667L197.067 102.533C251.067 102.533 298.267 102 301.733 101.467C310.8 99.9998 314.8 95.5998 316.133 86.1332C316.667 81.9998 316.667 75.1998 316.133 71.0665C315.2 64.5332 314.267 62.7998 310 59.0665L304.933 54.6665H265.067H225.333V59.3332V63.9998H265.333H305.333V78.6665V93.3332H202H98.6667V59.3332V25.3332H93.3333H88V58.6665Z" fill="#8B2F0E"/>
<path d="M334.667 63.9998V102.667H340H345.333V63.9998V25.3332H340H334.667V63.9998Z" fill="#8B2F0E"/>
<path d="M28 60.7997L22.4 66.933L23.2 77.4663C24.5333 91.9997 24 93.333 16.1333 93.333C10.6667 93.333 9.33333 93.9997 4.93333 98.3997C0.266667 103.2 0 103.866 0 112.4V121.333H5.33333H10.5333L10.9333 112.266L11.3333 103.333L36.4 102.666L61.6 102L66 97.0663C71.2 91.4663 72.8 83.9997 71.3333 72.3997C70.5333 65.9997 69.6 63.9997 65.3333 59.733L60.2667 54.6663H46.9333H33.7333L28 60.7997ZM60 78.6663V93.333H47.3333H34.6667V78.6663V63.9997H47.3333H60V78.6663Z" fill="#8B2F0E"/>
<path d="M281.333 117.333C281.333 120.933 281.733 121.333 285.333 121.333C288.933 121.333 289.333 120.933 289.333 117.333C289.333 113.733 288.933 113.333 285.333 113.333C281.733 113.333 281.333 113.733 281.333 117.333Z" fill="#8B2F0E"/>
</svg>
