<svg width="1006" height="220" viewBox="0 0 1006 220" fill="none" xmlns="http://www.w3.org/2000/svg">
<path d="M485.067 1.40382C449.333 8.20382 417.733 30.8705 403.333 60.0705C393.2 80.3372 393.333 79.5372 393.333 153.67V219.404H408.667H424V148.204V77.0038L446.933 54.8705L470 32.7372H503.867H537.6L554.533 49.0038C563.733 57.8038 573.867 68.0705 577.067 71.6705L582.667 78.3372V148.87V219.404H598H613.333V155.67C613.333 88.3371 612.8 82.3372 606.8 68.3372C602.4 58.0705 594.933 47.6705 583.333 35.5372C566.933 18.4705 550 7.67049 531.733 2.60382C521.2 -0.329512 497.333 -0.862845 485.067 1.40382Z" fill="#8B2F0E"/>
<path d="M459.467 64.3371L442.667 81.4038V134.337V187.404H457.333H472V134.337C472 94.8705 472.4 80.8705 473.6 79.6705C474.8 78.4705 483.2 78.0705 503.067 78.0705C528.133 78.0705 531.2 78.3371 532.8 80.3371C534.267 82.2038 534.533 93.6705 534.667 135.004V187.404H550H565.333V134.337V81.4038L547.467 64.3371L529.6 47.4038H502.933H476.267L459.467 64.3371Z" fill="#8B2F0E"/>
<path d="M346.667 94.7373C346.667 96.3373 344.933 96.7373 339.333 96.7373C333.6 96.7373 331.867 97.2706 330.667 99.2706C329.467 101.804 329.733 101.804 337.067 101.137C341.2 100.737 346 99.5373 347.733 98.6039C351.067 96.4706 351.733 92.7373 348.667 92.7373C347.6 92.7373 346.667 93.6706 346.667 94.7373Z" fill="#8B2F0E"/>
<path d="M488.933 95.004C488.4 95.404 488 102.337 488 110.337V124.737H503.333H518.667V109.404V94.0706H504.267C496.267 94.0706 489.333 94.4706 488.933 95.004Z" fill="#8B2F0E"/>
<path d="M88 143.404V176.737L93.3334 182.07L98.6667 187.404L197.067 187.27C251.067 187.27 298.267 186.737 301.733 186.204C310.8 184.737 314.8 180.337 316.133 170.87C316.667 166.737 316.667 159.937 316.133 155.804C315.2 149.27 314.267 147.537 310 143.804L304.933 139.404H265.067H225.333V144.07V148.737H265.333H305.333V163.404V178.07H202H98.6667V144.07V110.07H93.3334H88V143.404Z" fill="#8B2F0E"/>
<path d="M334.667 148.737V187.404H340H345.333V148.737V110.07H340H334.667V148.737Z" fill="#8B2F0E"/>
<path d="M687.333 111.67C680.4 131.004 661.333 183.404 660.667 185.004C659.867 187.004 660.533 187.404 664.933 187.404H670.133L674.8 174.337L679.6 161.404H698H716.533L721.333 174.07C726.133 186.737 726.133 186.737 731.067 187.137C733.733 187.404 736 187.137 736 186.47C735.867 185.937 729.733 168.604 722.133 148.07L708.4 110.737L698.267 110.337C690.8 110.07 687.733 110.47 687.333 111.67ZM706.533 132.47C710.267 142.737 713.333 151.404 713.333 151.937C713.333 152.337 706.4 152.737 698 152.737C689.6 152.737 682.667 152.47 682.667 152.204C682.667 151.404 696.133 114.87 696.933 113.67C698.267 111.537 699.867 114.737 706.533 132.47Z" fill="#8B2F0E"/>
<path d="M792 137.404C792 166.471 791.2 170.871 785.467 175.937C783.6 177.671 780 178.737 774.933 179.137C768.133 179.671 766.667 179.271 762.933 176.071C760.533 174.071 758 170.204 757.067 167.271C755.733 162.337 755.2 161.937 751.467 162.337C747.6 162.737 747.333 163.004 747.867 167.404C748.8 177.004 754.933 183.937 765.067 186.871C782 191.804 796.533 184.204 799.867 168.737C800.667 165.004 801.333 150.204 801.333 136.071V110.071H796.667H792V137.404Z" fill="#8B2F0E"/>
<path d="M850 112.337C849.6 113.67 843.467 130.07 836.667 148.737C829.867 167.404 823.867 183.804 823.333 185.004C822.533 187.004 823.2 187.404 827.6 187.404H832.8L837.6 174.337L842.4 161.404H860.8H879.2L884.133 174.07C888.933 186.604 889.067 186.737 893.867 187.137C896.533 187.404 898.667 187.137 898.667 186.47C898.667 185.937 892.4 168.604 884.933 148.07L871.2 110.737L861.067 110.337C852.4 110.07 850.8 110.337 850 112.337ZM869.333 132.737C873.067 142.47 876 151.004 876 151.67C876 152.204 869.067 152.737 860.667 152.737C852.267 152.737 845.333 152.604 845.333 152.337C845.333 151.937 855.6 123.804 858.533 116.204C859.6 113.537 860.533 112.737 861.467 113.67C862.133 114.337 865.733 123.004 869.333 132.737Z" fill="#8B2F0E"/>
<path d="M924.8 114.204C924.4 116.47 924 133.937 924 153.004V187.537L928.4 187.137L932.667 186.737L933.067 150.337C933.2 130.47 933.867 114.07 934.533 114.07C935.733 114.07 936.133 115.67 948.133 160.337L955.333 187.404H964.667H974L983.867 150.737C989.2 130.604 994.267 114.07 994.8 114.07C995.467 114.07 996 128.337 996 145.67C996 163.137 996.4 179.67 996.8 182.337C997.6 186.87 998.133 187.404 1001.47 187.404H1005.33V148.737V109.937L995.067 110.337L984.933 110.737L975.467 147.004C970.267 167.004 965.467 183.137 964.667 183.004C964 182.737 959.733 168.47 955.067 151.27C950.533 134.07 946.133 117.804 945.333 115.004L943.867 110.07H934.8H925.733L924.8 114.204Z" fill="#8B2F0E"/>
<path d="M28 145.537L22.4 151.67L23.2 162.204C24.5334 176.737 24 178.07 16.1334 178.07C10.6667 178.07 9.33336 178.737 4.93336 183.137C0.266693 187.937 2.61863e-05 188.604 2.61863e-05 197.137V206.07H5.33336H10.5334L10.9334 197.004L11.3334 188.07L36.4 187.404L61.6 186.737L66 181.804C71.2 176.204 72.8 168.737 71.3334 157.137C70.5334 150.737 69.6 148.737 65.3334 144.47L60.2667 139.404H46.9334H33.7334L28 145.537ZM60 163.404V178.07H47.3334H34.6667V163.404V148.737H47.3334H60V163.404Z" fill="#8B2F0E"/>
<path d="M281.333 202.07C281.333 205.67 281.733 206.07 285.333 206.07C288.933 206.07 289.333 205.67 289.333 202.07C289.333 198.47 288.933 198.07 285.333 198.07C281.733 198.07 281.333 198.47 281.333 202.07Z" fill="#8B2F0E"/>
</svg>
